<svg id="Layer_1" data-name="Layer 1" xmlns="http://www.w3.org/2000/svg" xmlns:xlink="http://www.w3.org/1999/xlink" viewBox="0 0 347.99 345.22"><defs><style>.cls-1{fill:url(#linear-gradient);}.cls-2{fill:url(#linear-gradient-2);}.cls-3{fill:url(#linear-gradient-3);}.cls-4{fill:url(#linear-gradient-4);}.cls-5{fill:url(#linear-gradient-5);}.cls-6{fill:url(#linear-gradient-6);}.cls-7{fill:url(#linear-gradient-7);}</style><linearGradient id="linear-gradient" x1="307.42" y1="201.05" x2="80.47" y2="201.05" gradientUnits="userSpaceOnUse"><stop offset="0" stop-color="#ef4136"/><stop offset="1" stop-color="#be1e2d"/></linearGradient><linearGradient id="linear-gradient-2" x1="152.91" y1="245.74" x2="234.99" y2="147.92" gradientUnits="userSpaceOnUse"><stop offset="0" stop-color="#f15a29"/><stop offset="1" stop-color="#be1e2d"/></linearGradient><linearGradient id="linear-gradient-3" x1="75.96" y1="147.25" x2="195.48" y2="4.81" gradientUnits="userSpaceOnUse"><stop offset="0" stop-color="#7c1e2d"/><stop offset="1" stop-color="#be1e2d"/></linearGradient><linearGradient id="linear-gradient-4" x1="252.4" y1="328.18" x2="360.49" y2="199.36" xlink:href="#linear-gradient-3"/><linearGradient id="linear-gradient-5" x1="278.11" y1="126.48" x2="318.55" y2="78.28" xlink:href="#linear-gradient-3"/><linearGradient id="linear-gradient-6" x1="37.23" y1="251.25" x2="100.76" y2="175.54" xlink:href="#linear-gradient-3"/><linearGradient id="linear-gradient-7" x1="125.72" y1="369.62" x2="211.74" y2="267.1" xlink:href="#linear-gradient-3"/></defs><title>nebula_logo_image</title><path class="cls-1" d="M268.64,235.63l17.87,30A77.18,77.18,0,0,0,265.26,144a74.23,74.23,0,0,0-11.45-4.64l33.92-7.73a77.17,77.17,0,0,0-122.3-17.21,73.37,73.37,0,0,0-7.34,8.63L161.37,89a77.2,77.2,0,0,0-54.82,110.68A74.31,74.31,0,0,0,113,210.17L81.11,196.34a77.22,77.22,0,0,0,88.45,86.21,73.65,73.65,0,0,0,12-2.93l-23,26.12A77.22,77.22,0,0,0,267.83,248.1,74.27,74.27,0,0,0,268.64,235.63Zm-82.17,41.49a79.77,79.77,0,1,1,81.39-46.77A79.76,79.76,0,0,1,186.47,277.12Z" transform="translate(-19.95 -20)"/><path class="cls-2" d="M257.8,196.83a63.85,63.85,0,1,0-63.86,63.85A63.85,63.85,0,0,0,257.8,196.83Z" transform="translate(-19.95 -20)"/><path class="cls-3" d="M74.26,137.14c0,3,.13,5.94.4,9A130.61,130.61,0,0,1,188.53,66.33l1.26-.06,27.27-43.35A115.72,115.72,0,0,0,191.39,20,117.27,117.27,0,0,0,74.26,137.14Z" transform="translate(-19.95 -20)"/><path class="cls-4" d="M302.4,338.59a117.13,117.13,0,0,0,26.41-163.54c-1.66-2.29-3.48-4.58-5.56-6.94a130.58,130.58,0,0,1-45.62,131.22l-1,.8,3.27,51.13A116,116,0,0,0,302.4,338.59Z" transform="translate(-19.95 -20)"/><path class="cls-5" d="M362.82,138.91A117,117,0,0,0,215.33,63.48c-2.84.92-5.66,2-8.52,3.17,49.41,4.38,93.16,36.94,111,83.77l.45,1.2,49.64,12.6A116,116,0,0,0,362.82,138.91Z" transform="translate(-19.95 -20)"/><path class="cls-6" d="M100.23,293.32c2.81.94,5.71,1.75,8.7,2.47A130.73,130.73,0,0,1,68.78,163.35c.18-.66.36-1.33.55-2L36.75,121.83a115.24,115.24,0,0,0-10.84,23.44A117.27,117.27,0,0,0,100.23,293.32Z" transform="translate(-19.95 -20)"/><path class="cls-7" d="M93.82,342.53A116.17,116.17,0,0,0,163,365.22a117.66,117.66,0,0,0,94.56-47.87c1.76-2.4,3.43-4.92,5-7.57a131.79,131.79,0,0,1-67.31,18.56,130.31,130.31,0,0,1-71.78-21.5l-1-.67L74.85,325A114.88,114.88,0,0,0,93.82,342.53Z" transform="translate(-19.95 -20)"/></svg>